<?xml version="1.0" encoding="utf-8"?>
<!-- Generator: Adobe Illustrator 26.1.0, SVG Export Plug-In . SVG Version: 6.00 Build 0)  -->
<svg version="1.1" id="Layer_1" xmlns="http://www.w3.org/2000/svg" xmlns:xlink="http://www.w3.org/1999/xlink" x="0px" y="0px"
	 viewBox="0 0 488 488" style="enable-background:new 0 0 488 488;" xml:space="preserve">
<path d="M176.1,359.4l-20.6,19.9c-4,3.8-4.1,10.1-0.3,14.1c2,2.1,4.6,3.1,7.2,3.1c2.5,0,5-0.9,6.9-2.8l20.6-19.9
	c4-3.8,4.1-10.1,0.3-14.1S180.1,355.6,176.1,359.4z"/>
<path d="M338.3,359.6l-19.8,19.9c-3.9,3.9-3.9,10.2,0,14.1c2,1.9,4.5,2.9,7.1,2.9c2.5,0,5.1-1,7-2.9l19.8-19.9
	c3.9-3.9,3.9-10.2,0-14.1C348.5,355.7,342.2,355.7,338.3,359.6z"/>
<path d="M420.1,359.4l-20.6,19.9c-4,3.8-4.1,10.1-0.3,14.1c2,2.1,4.6,3.1,7.2,3.1c2.5,0,5-0.9,6.9-2.8l20.6-19.9
	c4-3.8,4.1-10.1,0.3-14.1S424.1,355.6,420.1,359.4z"/>
<path d="M94.3,359.6l-19.8,19.9c-3.9,3.9-3.9,10.2,0,14.1c2,1.9,4.5,2.9,7.1,2.9s5.2-1,7-2.9l19.8-19.9c3.9-3.9,3.9-10.2,0-14.1
	C104.5,355.7,98.2,355.7,94.3,359.6z"/>
<path d="M318.5,430.7l-20.6,20.6c-3.9,3.9-3.9,10.2,0,14.1c2,1.9,4.5,2.9,7.1,2.9c2.5,0,5.1-1,7-2.9l20.6-20.6
	c3.9-3.9,3.9-10.2,0-14.1C328.7,426.8,322.4,426.8,318.5,430.7z"/>
<path d="M399.1,430.8l-19.8,20.6c-3.8,3.9-3.7,10.3,0.3,14.1c1.9,1.9,4.4,2.8,6.9,2.8c2.7,0,5.3-1,7.2-3.1l19.8-20.6
	c3.8-3.9,3.7-10.3-0.3-14.1C409.3,426.7,402.9,426.8,399.1,430.8z"/>
<path d="M155.2,430.8l-19.8,20.6c-3.8,3.9-3.7,10.3,0.3,14.1c1.9,1.9,4.4,2.8,6.9,2.8c2.7,0,5.3-1,7.2-3.1l19.8-20.6
	c3.8-3.9,3.7-10.3-0.3-14.1C165.4,426.7,159,426.8,155.2,430.8z"/>
<path d="M223.4,478.3L223.4,478.3L223.4,478.3z"/>
<path d="M74.6,430.7L54,451.3c-3.9,3.9-3.9,10.2,0,14.1c2,1.9,4.5,2.9,7.1,2.9c2.5,0,5.1-1,7-2.9l20.6-20.6c3.9-3.9,3.9-10.2,0-14.1
	C84.8,426.8,78.5,426.8,74.6,430.7z"/>
<path d="M366,81.6c-10,0-19.8,1.2-29.3,3.5C318.5,39.7,274,9.7,223.4,9.7c-44.5,0-85.6,25.2-107.1,64.9c-8.1-2.4-16.7-3.7-24.7-3.7
	C41.1,70.9,0,112.1,0,162.7s41.1,91.8,91.6,91.8l53.2-0.3c9.3,40.8,45.8,71.4,89.3,71.4H366c67.3,0,122-54.9,122-122.3
	C488,136.1,433.3,81.6,366,81.6z M142.6,233.6c0,0.1,0,0.2,0,0.4l-51,0.4l0,0c-39.5,0-71.6-32.2-71.6-71.8s32.1-71.8,71.6-71.8
	c8.3,0,17.7,1.9,25.9,5.3c5,2.1,10.7-0.2,13-5.1c16.8-37.3,53.4-61.4,93-61.4c41.9,0,78.8,24.5,94.3,61.7
	c-25.1,10.7-46.1,29.7-59.1,54.4c-7.8-2.1-15.9-3.1-24.5-3.1c-24.4,0-47.4,9.4-64.7,26.5C152.2,186.3,142.6,209.2,142.6,233.6z
	 M366,305.4L366,305.4H234.1c-39.5,0-71.6-32.2-71.6-71.8c0-39.1,32.1-71,71.6-71c9.4,0,18,1.5,26.1,4.7c5,1.9,10.6-0.4,12.8-5.4
	c15.9-36.7,52.4-60.4,93-60.4c56.3,0,102,45.6,102,101.6C468,259.5,422.2,305.4,366,305.4z"/>
<path d="M255.2,359.4l-20.6,19.9c-4,3.8-4.1,10.1-0.3,14.1c2,2.1,4.6,3.1,7.2,3.1c2.5,0,5-0.9,6.9-2.8l20.6-19.9
	c4-3.8,4.1-10.1,0.3-14.1C265.5,355.7,259.2,355.6,255.2,359.4z"/>
<path d="M234.9,430.9l-20.6,19.9c-4,3.8-4.1,10.1-0.3,14.1c2,2.1,4.6,3.1,7.2,3.1c2.5,0,5-0.9,6.9-2.8l20.6-19.9
	c4-3.8,4.1-10.1,0.3-14.1S238.9,427.1,234.9,430.9z"/>
</svg>
